# xmcd CD database file
#
# Track frame offsets:
#	150
#	10982
#	34647
#	53017
#	72647
#	91595
#	108025
#	140107
#	155955
#	174395
#	188372
#	212800
#
# Disc length: 3132 seconds
#
# Revision: 2
# Processed by: cddbd v1.4b41PL1 Copyright (c) Steve Scherf et al.
# Submitted via: Feurio! 1.50.2ß - http://www.feurio.com
#
DISCID=9d0c3a0c
DTITLE=Tony Sarno and the Screamin' blue demons - It's A Blues Thing
DYEAR=1900
DGENRE=
TTITLE0=I Ain't Superstitious
TTITLE1=Blue Shadows
TTITLE2=Who to Believe
TTITLE3=Lady and my Dog
TTITLE4=Alone in the dark
TTITLE5=Talk to me baby
TTITLE6=Gambler's blues
TTITLE7=Nellie fetch the hosepipe
TTITLE8=Crybaby blues
TTITLE9=Money on the side
TTITLE10=Walkin' blues
TTITLE11=Screamin' blues demon
EXTD=
EXTT0=
EXTT1=
EXTT2=
EXTT3=
EXTT4=
EXTT5=
EXTT6=
EXTT7=
EXTT8=
EXTT9=
EXTT10=
EXTT11=
PLAYORDER=
